<svg class="svg-icon" style="width: 1em; height: 1em;vertical-align: middle;fill: currentColor;overflow: hidden;" viewBox="0 0 1024 1024" version="1.1" xmlns="http://www.w3.org/2000/svg"><path d="M860.2 695.8c-13.2-12.2-32.6-15.2-49.2-18-23-3.8-31.8-8-45.2-20-28.6-25.4-28.6-62.2 0-87.6l60.6-53.8c92.8-82 92.8-216.4 0-298.4-68.4-60.2-160.2-90-255.6-90-111.4 0-227.8 40.6-317.6 120.2-167 147.6-167 389.4 0 537 83 73.4 195 110 305.8 110.8h3.4c110.8 0 220-35.8 297.6-104.8 28.8-25.4 24-73.2 0.2-95.4zM240 432c0-35.4 28.6-64 64-64s64 28.6 64 64-28.6 64-64 64-64-28.6-64-64z m80 252c-35.4 0-64-28.6-64-64s28.6-64 64-64 64 28.6 64 64-28.6 64-64 64z m128-322c-35.4 0-64-28.6-64-64s28.6-64 64-64 64 28.6 64 64-28.6 64-64 64z m144 438c-53 0-96-43-96-96s43-96 96-96 96 43 96 96-43 96-96 96z m48-416c-35.4 0-64-28.6-64-64s28.6-64 64-64 64 28.6 64 64-28.6 64-64 64z" fill="" /></svg>